<svg height="511pt" viewBox="-10 1 511 511.99998" width="511pt" xmlns="http://www.w3.org/2000/svg"><path d="m303.4375 180.328125c0 15.984375-12.957031 28.945313-28.941406 28.945313h-183.019532c-15.988281 0-28.945312 12.957031-28.945312 28.945312v244.835938c0 15.988281 12.957031 28.945312 28.945312 28.945312h371.917969c15.988281 0 28.945313-12.957031 28.945313-28.945312v-302.726563c0-15.988281-12.957032-28.945313-28.945313-28.945313h-131.011719c-15.984374 0-28.945312 12.957032-28.945312 28.945313zm0 0" fill="#e58e13"/><path d="m145.070312 77.71875h313.453126v400.554688h-313.453126zm0 0" fill="#b3b3b3"/><path d="m94.640625 0h313.453125v265.789062h-313.453125zm0 0" fill="#cbcbcb"/><path d="m94.640625 0h313.453125v56.707031h-313.453125zm0 0" fill="#e6e6e6"/><path d="m44.207031 77.71875h313.453125v188.070312h-313.453125zm0 0" fill="#e6e6e6"/><path d="m430.308594 180.328125v302.726563c0 15.988281-12.957032 28.945312-28.945313 28.945312h-371.917969c-15.976562 0-28.945312-12.957031-28.945312-28.945312v-244.839844c0-15.988282 12.96875-28.945313 28.945312-28.945313h183.023438c15.984375 0 28.941406-12.957031 28.941406-28.941406 0-15.988281 12.957032-28.945313 28.945313-28.945313h131.007812c15.988281 0 28.945313 12.957032 28.945313 28.945313zm0 0" fill="#e58e13"/><path d="m417.769531 180.328125v302.726563c0 15.988281-12.957031 28.945312-28.945312 28.945312h-359.378907c-15.976562 0-28.945312-12.957031-28.945312-28.945312v-244.839844c0-15.988282 12.96875-28.945313 28.945312-28.945313h183.023438c15.984375 0 28.941406-12.957031 28.941406-28.941406 0-15.988281 12.957032-28.945313 28.945313-28.945313h118.46875c15.988281 0 28.945312 12.957032 28.945312 28.945313zm0 0" fill="#f7d360"/><path d="m281.421875 126.304688h-188.070313c-4.328124 0-7.839843-3.507813-7.839843-7.835938s3.511719-7.835938 7.839843-7.835938h188.070313c4.328125 0 7.835937 3.507813 7.835937 7.835938s-3.507812 7.835938-7.835937 7.835938zm0 0" fill="#6198ce"/><path d="m200.933594 165.488281h-107.582032c-4.328124 0-7.839843-3.507812-7.839843-7.835937s3.511719-7.839844 7.839843-7.839844h107.582032c4.328125 0 7.835937 3.511719 7.835937 7.839844s-3.507812 7.835937-7.835937 7.835937zm0 0" fill="#6198ce"/><path d="m381.917969 309.675781h-141.433594c-5.957031 0-10.78125-4.828125-10.78125-10.78125v-36.425781c0-5.953125 4.824219-10.78125 10.78125-10.78125h141.429687c5.957032 0 10.78125 4.828125 10.78125 10.78125v36.425781c.003907 5.957031-4.824218 10.78125-10.777343 10.78125zm0 0" fill="#fc5f61"/></svg>